<?xml version="1.0" encoding="utf-8"?>
<!-- Generator: Adobe Illustrator 12.0.0, SVG Export Plug-In . SVG Version: 6.00 Build 51448)  -->
<!DOCTYPE svg PUBLIC "-//W3C//DTD SVG 1.1//EN" "http://www.w3.org/Graphics/SVG/1.1/DTD/svg11.dtd" [
	<!ENTITY ns_svg "http://www.w3.org/2000/svg">
	<!ENTITY ns_xlink "http://www.w3.org/1999/xlink">
]>
<svg  version="1.1" id="Layer_1" xmlns="&ns_svg;" xmlns:xlink="&ns_xlink;" width="597.334" height="240"
	 viewBox="0 0 597.334 240" overflow="visible" enable-background="new 0 0 597.334 240" xml:space="preserve">
<g>
	<path fill="#1F5DA8" d="M454.521,184.491"/>
	<rect x="164.668" y="27.582" fill="#1F5DA8" width="19.572" height="182.124"/>
	<path fill="#1F5DA8" d="M249.178,101.83c-20.826,0-33.114,12.467-34.833,14.326V50.617l-19.301,7.344v151.822h19.301v-10.012
		c2.6,2.337,14.821,12.309,33.964,12.143c27.42,0,53.621-21.796,53.621-56.466C301.93,120.779,271.732,101.83,249.178,101.83
		 M248.867,193.282c-13.76,0-23.745-8.071-23.745-8.071l-10.777,12.107v-41.339c2.175-26.862,21.869-35.925,36.522-35.925
		c12.652,0,33.071,10.743,33.071,37.036C283.938,183.608,262.632,193.282,248.867,193.282"/>
	<path fill="#1F5DA8" d="M412.534,118.001v-16.193h-19.749v107.981h19.749v-49.02c0-36.902,19.318-43.36,29.278-44.237V99.078
		C420.164,100.242,412.534,118.001,412.534,118.001"/>
	<polygon fill="#1F5DA8" points="467.962,97.088 467.962,72.339 447.394,79.227 447.394,209.687 467.962,209.687 467.962,115.419 
		484.753,115.419 489.869,97.088 	"/>
	<path fill="#1F5DA8" d="M562.926,101.581v14.976c0,0-12.635-14.614-35.311-14.614c-22.7,0-53.113,19.005-53.113,53.802
		c0,34.797,26.389,56.672,54.005,56.672c21.831,0.177,34.723-12.683,34.723-12.683l0.029,10.001h19.876V101.581H562.926
		 M551.858,185.596c0,0-10.068,8.126-23.922,8.126c-13.852,0-35.311-9.704-35.311-36.327c0-26.373,20.559-37.166,33.294-37.166
		c15.647,0,36.995,10.208,36.995,41.063c0,30.855,0.344,37.106,0.344,37.106L551.858,185.596z"/>
	<polygon fill="#1F5DA8" points="14.199,209.663 42.51,209.663 132.796,99.088 133.219,180.644 104.492,156.923 90.127,174.581 
		133.136,209.742 153.855,209.742 153.855,38.877 	"/>
	<path fill="#1F5DA8" d="M393.023,159.156l-17.249-0.021c-0.877,24.788-22.869,32.593-22.869,32.593
		c-28.104,9.944-42.665-16.301-42.665-16.301c-12.98-26.162,5.272-44.063,5.272-44.063c23.972-21.575,45.747-4.13,45.747-4.13
		l-27.049,25.246l11.852,14.349l41.172-37.255c-9.226-16.578-26.53-27.751-46.369-27.751c-29.522,0-53.448,24.714-53.448,55.197
		c0,30.485,23.926,55.19,53.448,55.19c28.833,0,52.314-23.567,53.395-53.07L393.023,159.156"/>
</g>
</svg>
