<?xml version="1.0" encoding="UTF-8"?> <!-- Generator: Adobe Illustrator 25.2.0, SVG Export Plug-In . SVG Version: 6.00 Build 0) --> <svg xmlns="http://www.w3.org/2000/svg" xmlns:xlink="http://www.w3.org/1999/xlink" version="1.1" id="Layer_1" x="0px" y="0px" viewBox="0 0 327 123" style="enable-background:new 0 0 327 123;" xml:space="preserve"> <style type="text/css"> .st0{fill:#FFFFFF;} .st1{fill:#77CFE3;} </style> <g> <path class="st0" d="M25.9,34.2c0,1.2-0.2,2.2-0.7,3.1c-0.5,0.9-1.1,1.6-1.9,2.2c-0.8,0.6-1.8,1-2.8,1.4c-1.1,0.3-2.2,0.5-3.4,0.5 H3.7V13.8h14.8c1,0,1.8,0.2,2.6,0.6c0.8,0.4,1.4,1,2,1.6c0.5,0.7,1,1.4,1.3,2.3c0.3,0.8,0.4,1.7,0.4,2.5c0,1.3-0.3,2.6-1,3.8 c-0.7,1.2-1.7,2.1-3,2.6c1.6,0.5,2.8,1.3,3.8,2.5C25.4,30.9,25.9,32.4,25.9,34.2z M9,18.3v7h7.2c0.9,0,1.7-0.3,2.3-0.9 c0.6-0.6,1-1.5,1-2.6c0-1.1-0.3-1.9-0.9-2.5c-0.6-0.6-1.3-0.9-2.2-0.9H9z M20.5,33.2c0-0.5-0.1-1-0.3-1.4c-0.2-0.5-0.4-0.8-0.7-1.2 c-0.3-0.3-0.6-0.6-1-0.8c-0.4-0.2-0.8-0.3-1.3-0.3H9v7.3h8c0.5,0,1-0.1,1.4-0.3c0.4-0.2,0.8-0.4,1.1-0.8c0.3-0.3,0.6-0.7,0.7-1.1 C20.4,34.2,20.5,33.7,20.5,33.2z"></path> <path class="st0" d="M41.8,36.8c1.3,0,2.3-0.3,3.2-0.8c0.9-0.5,1.6-1.2,2.1-2c0.5-0.8,0.9-1.8,1.1-2.9c0.2-1.1,0.3-2.2,0.3-3.3 V13.8h5.3v14.1c0,1.9-0.2,3.7-0.7,5.3c-0.5,1.7-1.2,3.1-2.1,4.4c-1,1.2-2.2,2.2-3.8,3c-1.5,0.7-3.4,1.1-5.5,1.1 c-2.2,0-4.1-0.4-5.6-1.1c-1.5-0.8-2.8-1.8-3.8-3c-1-1.3-1.7-2.7-2.1-4.4c-0.4-1.7-0.6-3.4-0.6-5.2V13.8h5.4v14.1 c0,1.2,0.1,2.3,0.3,3.4c0.2,1.1,0.6,2,1.1,2.9c0.5,0.8,1.2,1.5,2.1,2C39.5,36.6,40.5,36.8,41.8,36.8z"></path> <path class="st0" d="M59.2,41.4V13.8h5.4v27.6H59.2z"></path> <path class="st0" d="M70.4,41.4V13.8h5.4v22.9h14.1v4.7H70.4z"></path> <path class="st0" d="M93.1,41.4V13.8h10c2.3,0,4.2,0.4,5.9,1.1c1.7,0.7,3.1,1.7,4.3,3c1.1,1.2,2,2.7,2.6,4.4 c0.6,1.7,0.9,3.5,0.9,5.3c0,2.1-0.3,4-1,5.7c-0.6,1.7-1.5,3.1-2.7,4.4c-1.2,1.2-2.6,2.1-4.3,2.8c-1.7,0.7-3.5,1-5.6,1H93.1z M111.3,27.5c0-1.3-0.2-2.5-0.5-3.7c-0.4-1.1-0.9-2.1-1.6-2.9c-0.7-0.8-1.6-1.4-2.6-1.9c-1-0.4-2.2-0.7-3.5-0.7h-4.7v18.2h4.7 c1.3,0,2.5-0.2,3.5-0.7c1-0.5,1.9-1.1,2.6-1.9c0.7-0.8,1.2-1.8,1.6-2.9C111.1,30,111.3,28.8,111.3,27.5z"></path> <path class="st0" d="M120.9,41.4V13.8h5.4v27.6H120.9z"></path> <path class="st0" d="M137.4,23.7v17.7H132V13.8h4.2l14.4,18.1V13.8h5.4v27.6h-4.4L137.4,23.7z"></path> <path class="st0" d="M180.8,38.2c-2.2,2.2-4.8,3.3-7.7,3.3c-1.8,0-3.5-0.4-5.1-1.1c-1.6-0.7-3-1.7-4.2-3c-1.2-1.3-2.1-2.8-2.8-4.5 c-0.7-1.7-1-3.6-1-5.6c0-1.9,0.3-3.7,1-5.3c0.7-1.7,1.6-3.1,2.8-4.4c1.2-1.3,2.6-2.3,4.3-3c1.6-0.7,3.4-1.1,5.3-1.1 c2.6,0,4.8,0.5,6.7,1.6c1.9,1.1,3.2,2.6,4.2,4.4l-4,3c-0.7-1.4-1.7-2.4-2.9-3.1c-1.3-0.7-2.6-1.1-4.1-1.1c-1.2,0-2.2,0.2-3.2,0.7 c-1,0.5-1.8,1.2-2.5,2c-0.7,0.9-1.2,1.8-1.6,3c-0.4,1.1-0.6,2.3-0.6,3.5c0,1.3,0.2,2.5,0.6,3.6c0.4,1.1,1,2.1,1.7,2.9 c0.7,0.8,1.6,1.5,2.6,2c1,0.5,2.1,0.7,3.2,0.7c2.7,0,5.1-1.3,7.2-3.8v-1.9h-5.6v-3.9h10v14.2h-4.4V38.2z"></path> <path class="st0" d="M24.3,55.4h-8.8v22.9h-5.3V55.4H1.3v-4.7h23V55.4z"></path> <path class="st0" d="M27.7,78.3V50.7h12.2c1.3,0,2.4,0.3,3.5,0.8c1.1,0.5,2,1.2,2.8,2.1c0.8,0.9,1.4,1.9,1.8,3 c0.4,1.1,0.7,2.2,0.7,3.3c0,1.8-0.4,3.4-1.3,4.9c-0.9,1.5-2.1,2.5-3.6,3.2L50,78.3h-6L38.4,69h-5.3v9.3H27.7z M33.1,64.3h6.7 c0.5,0,1-0.1,1.4-0.4c0.4-0.2,0.8-0.5,1.1-1c0.3-0.4,0.6-0.9,0.7-1.4c0.2-0.5,0.3-1.1,0.3-1.7c0-0.6-0.1-1.2-0.3-1.8 c-0.2-0.5-0.5-1-0.8-1.4c-0.3-0.4-0.8-0.7-1.2-0.9c-0.5-0.2-0.9-0.3-1.4-0.3h-6.5V64.3z"></path> <path class="st0" d="M61,50.7h4.7l10.5,27.6h-5.5l-2.6-6.9h-9.6L56,78.3h-5.5L61,50.7z M67.2,67.6l-3.8-10.8l-4,10.8H67.2z"></path> <path class="st0" d="M79.3,78.3V50.7h10c2.3,0,4.2,0.4,5.9,1.1c1.7,0.7,3.1,1.7,4.3,3c1.1,1.2,2,2.7,2.6,4.4 c0.6,1.7,0.9,3.5,0.9,5.3c0,2.1-0.3,4-1,5.7c-0.6,1.7-1.5,3.1-2.7,4.4c-1.2,1.2-2.6,2.1-4.3,2.8c-1.7,0.7-3.5,1-5.6,1H79.3z M97.5,64.4c0-1.3-0.2-2.5-0.5-3.7c-0.4-1.1-0.9-2.1-1.6-2.9c-0.7-0.8-1.6-1.4-2.6-1.9c-1-0.4-2.2-0.7-3.5-0.7h-4.7v18.2h4.7 c1.3,0,2.5-0.2,3.5-0.7c1-0.5,1.9-1.1,2.6-1.9c0.7-0.8,1.2-1.8,1.6-2.9C97.3,66.9,97.5,65.7,97.5,64.4z"></path> <path class="st0" d="M126.3,73.6v4.7h-19.2V50.7h18.8v4.7h-13.5V62h11.6v4.4h-11.6v7.2H126.3z"></path> <path class="st0" d="M146.3,57.9c-0.2-0.2-0.5-0.4-1-0.7c-0.5-0.3-1.1-0.6-1.8-0.9c-0.7-0.3-1.4-0.5-2.2-0.8 c-0.8-0.2-1.6-0.3-2.4-0.3c-1.5,0-2.6,0.3-3.3,0.8c-0.7,0.5-1.1,1.3-1.1,2.3c0,0.6,0.1,1,0.4,1.4c0.3,0.4,0.7,0.7,1.2,1 c0.5,0.3,1.2,0.5,2,0.8c0.8,0.2,1.7,0.5,2.7,0.7c1.3,0.4,2.6,0.8,3.7,1.2c1.1,0.4,2,0.9,2.8,1.6c0.8,0.6,1.4,1.4,1.8,2.2 c0.4,0.9,0.6,1.9,0.6,3.2c0,1.5-0.3,2.7-0.8,3.8c-0.6,1-1.3,1.9-2.3,2.5c-0.9,0.6-2,1.1-3.3,1.4c-1.2,0.3-2.5,0.4-3.9,0.4 c-2.1,0-4.1-0.3-6.1-0.9c-2-0.6-3.8-1.5-5.4-2.6l2.4-4.6c0.2,0.2,0.7,0.5,1.3,0.9c0.6,0.4,1.3,0.8,2.2,1.1c0.8,0.4,1.7,0.7,2.8,1 c1,0.3,2,0.4,3.1,0.4c3,0,4.4-0.9,4.4-2.8c0-0.6-0.2-1.1-0.5-1.5c-0.3-0.4-0.8-0.8-1.4-1.1c-0.6-0.3-1.4-0.6-2.3-0.9 c-0.9-0.3-1.9-0.5-3-0.9c-1.3-0.4-2.5-0.8-3.4-1.2c-1-0.4-1.8-0.9-2.4-1.5c-0.6-0.6-1.1-1.3-1.5-2c-0.3-0.8-0.5-1.7-0.5-2.7 c0-1.4,0.3-2.6,0.8-3.7c0.5-1.1,1.2-2,2.2-2.7c0.9-0.7,2-1.3,3.2-1.7c1.2-0.4,2.5-0.6,3.9-0.6c1.9,0,3.7,0.3,5.4,0.9 c1.6,0.6,3.1,1.3,4.3,2.2L146.3,57.9z"></path> </g> <g> <path class="st1" d="M12.5,108.5c-1.6,0-3.1-0.3-4.4-0.9c-1.3-0.6-2.4-1.5-3.4-2.5c-0.9-1-1.7-2.2-2.2-3.6 c-0.5-1.3-0.8-2.7-0.8-4.1c0-1.5,0.3-2.9,0.8-4.2c0.5-1.3,1.3-2.5,2.3-3.6c1-1,2.1-1.9,3.4-2.5c1.3-0.6,2.8-0.9,4.3-0.9 c1.6,0,3.1,0.3,4.4,1c1.3,0.7,2.4,1.5,3.4,2.6c0.9,1.1,1.7,2.3,2.2,3.6c0.5,1.3,0.8,2.7,0.8,4.1c0,1.5-0.3,2.9-0.8,4.2 c-0.5,1.3-1.3,2.5-2.2,3.5c-1,1-2.1,1.8-3.4,2.5C15.5,108.2,14.1,108.5,12.5,108.5z M6.1,97.3c0,1,0.1,1.9,0.4,2.8 c0.3,0.9,0.7,1.7,1.3,2.4c0.5,0.7,1.2,1.2,2,1.6c0.8,0.4,1.7,0.6,2.7,0.6c1,0,2-0.2,2.8-0.6c0.8-0.4,1.5-1,2-1.7s1-1.5,1.2-2.4 c0.3-0.9,0.4-1.8,0.4-2.7c0-1-0.2-1.9-0.5-2.8c-0.3-0.9-0.7-1.7-1.3-2.4c-0.5-0.7-1.2-1.2-2-1.6c-0.8-0.4-1.7-0.6-2.7-0.6 c-1,0-2,0.2-2.8,0.6c-0.8,0.4-1.5,1-2,1.7c-0.5,0.7-0.9,1.5-1.2,2.4C6.2,95.5,6.1,96.4,6.1,97.3z"></path> <path class="st1" d="M26.6,108.3V86.3h14.8V90H30.9v5.7h8.8v3.5h-8.8v9.1H26.6z"></path> <path class="st1" d="M56.5,86.3h3.8l8.4,22.1h-4.4l-2.1-5.5h-7.7l-2,5.5h-4.4L56.5,86.3z M61.5,99.8l-3-8.7l-3.2,8.7H61.5z"></path> <path class="st1" d="M71.2,108.3V86.3h4.3v18.3h11.3v3.8H71.2z"></path> <path class="st1" d="M107.1,102.6c0,0.9-0.2,1.8-0.6,2.5c-0.4,0.7-0.9,1.3-1.5,1.8c-0.7,0.5-1.4,0.8-2.3,1.1 c-0.9,0.2-1.8,0.4-2.8,0.4H89.3V86.3h11.8c0.8,0,1.5,0.2,2.1,0.5c0.6,0.3,1.2,0.8,1.6,1.3c0.4,0.5,0.8,1.1,1,1.8 c0.2,0.7,0.4,1.4,0.4,2c0,1.1-0.3,2.1-0.8,3c-0.5,0.9-1.3,1.6-2.4,2.1c1.3,0.4,2.3,1,3,2C106.7,100,107.1,101.2,107.1,102.6z M93.6,89.9v5.6h5.7c0.7,0,1.3-0.2,1.9-0.7c0.5-0.5,0.8-1.2,0.8-2.1c0-0.9-0.2-1.5-0.7-2c-0.5-0.5-1-0.7-1.7-0.7H93.6z M102.8,101.8c0-0.4-0.1-0.8-0.2-1.1c-0.1-0.4-0.3-0.7-0.5-0.9c-0.2-0.3-0.5-0.5-0.8-0.6c-0.3-0.2-0.7-0.2-1-0.2h-6.6v5.8h6.4 c0.4,0,0.8-0.1,1.1-0.2c0.3-0.1,0.6-0.3,0.9-0.6c0.2-0.3,0.4-0.6,0.6-0.9C102.7,102.6,102.8,102.2,102.8,101.8z"></path> <path class="st1" d="M125.8,104.6v3.8h-15.3V86.3h15.1V90h-10.8v5.3h9.3v3.5h-9.3v5.8H125.8z"></path> <path class="st1" d="M129.2,108.3V86.3h9.8c1,0,2,0.2,2.8,0.6c0.9,0.4,1.6,1,2.2,1.7c0.6,0.7,1.1,1.5,1.5,2.4 c0.4,0.9,0.5,1.8,0.5,2.7c0,1.4-0.4,2.7-1.1,3.9c-0.7,1.2-1.7,2-2.9,2.5l5,8.3h-4.8l-4.5-7.4h-4.2v7.4H129.2z M133.4,97.2h5.4 c0.4,0,0.8-0.1,1.1-0.3c0.3-0.2,0.6-0.4,0.9-0.8s0.4-0.7,0.6-1.1c0.1-0.4,0.2-0.9,0.2-1.4c0-0.5-0.1-1-0.2-1.4 c-0.2-0.4-0.4-0.8-0.7-1.1c-0.3-0.3-0.6-0.6-1-0.7c-0.4-0.2-0.7-0.3-1.1-0.3h-5.2V97.2z"></path> <path class="st1" d="M166,90H159v18.3h-4.3V90h-7.1v-3.8H166V90z"></path> <path class="st1" d="M172.9,86.3h3.8l8.4,22.1h-4.4l-2.1-5.5h-7.7l-2,5.5h-4.4L172.9,86.3z M177.8,99.8l-3-8.7l-3.2,8.7H177.8z"></path> </g> <polygon class="st1" points="236,51.5 236,72.2 205.5,49 205.9,35.6 "></polygon> <polygon class="st0" points="236,91.9 236,119.8 200,81 200.4,60.3 "></polygon> <polygon class="st0" points="236,51.5 236,72.2 296.3,36.4 296.3,25.5 "></polygon> <polygon class="st1" points="236,119.8 236,91.9 323.4,29.9 323.4,43.5 "></polygon> <polygon class="st1" points="236,3.3 236,16.8 214.2,16 214.2,7.7 "></polygon> <polygon class="st1" points="236,24.4 236,40.4 210.3,30.2 210.3,21.1 "></polygon> <polygon class="st0" points="236,3.3 276.8,6 276.8,13.1 236,16.8 "></polygon> <polygon class="st0" points="236,40.4 236,24.4 286.5,15.4 286.5,22.7 "></polygon> </svg> 