<?xml version="1.0" encoding="utf-8"?>
<!-- Generator: Adobe Illustrator 19.0.0, SVG Export Plug-In . SVG Version: 6.00 Build 0)  -->
<svg version="1.1" id="layer" xmlns="http://www.w3.org/2000/svg" xmlns:xlink="http://www.w3.org/1999/xlink" x="0px" y="0px"
	 viewBox="-153 -46 652 652" style="enable-background:new -153 -46 652 652;" xml:space="preserve">
<style type="text/css">
	.st0{fill:#C8102E;}
	.st1{fill:#4B4F55;}
	.st2{fill:#FFFFFF;}
</style>
<rect x="-130.5" y="134.2" class="st0" width="440.5" height="284.5"/>
<rect x="319.6" y="134.2" class="st1" width="149.9" height="284.5"/>
<path class="st2" d="M-25.2,359.3c-3,1.4-10.5,3.3-19.6,3.3c-26.5,0-40.6-16-40.6-37.6c0-25.4,18.8-39.5,42.3-39.5
	c9.1,0,15.8,1.7,19.1,3.3l-3.6,13.3c-3.3-1.4-8.3-2.8-14.7-2.8c-13.8,0-24.3,8-24.3,24.6c0,14.9,9.1,24.3,24.6,24.3
	c5.3,0,11.1-1.1,14.7-2.5L-25.2,359.3z M11.1,335.5c-9.1,0-16.3,2.2-16.3,8.6c0,4.4,3,6.4,6.9,6.4c4.1,0,8-2.8,9.1-6.1
	c0.3-0.8,0.3-1.9,0.3-2.8C11.1,341.6,11.1,335.5,11.1,335.5z M28.2,348.2c0,5,0.3,10,0.8,13H13.3l-1.1-5.5h-0.3
	c-3.6,4.4-9.4,6.6-16,6.6c-11.3,0-18-8-18-16.6c0-14.1,13-20.5,33.2-20.5v-0.6c0-3-1.7-6.9-10.2-6.9c-5.8,0-11.9,1.9-15.5,4.1
	l-3.3-10.8c3.9-2.2,11.6-5,21.8-5c18.5,0,24.3,10.5,24.3,23.2V348.2L28.2,348.2z M32.9,282.7h17.4v78.5H32.9V282.7z M92.6,329.1
	c0-1.1,0-2.2-0.3-3c-1.4-4.4-4.7-7.5-9.4-7.5c-6.4,0-11.3,5.5-11.3,15.2c0,8,4.1,14.4,11.3,14.4c4.7,0,8-2.8,9.1-6.6
	c0.6-1.4,0.6-3,0.6-4.4V329.1z M110.1,353.5c0,10.2-2.2,18.8-8.6,24.3c-6.1,5-14.4,6.6-22.7,6.6c-7.5,0-15.2-1.4-20.2-4.1l3.3-12.7
	c3.6,1.9,9.7,4.1,16.3,4.1c8.3,0,14.4-4.1,14.4-14.1v-3.3h-0.3c-3.3,4.4-8.6,6.9-15.2,6.9c-13.8,0-23.8-10.8-23.8-26.3
	c0-17.4,11.6-28.5,25.4-28.5c7.7,0,12.4,3.3,15.2,7.7h0.3l0.6-6.4h15.2c-0.3,3.6-0.6,8-0.6,16v29.6
	C109.5,353.5,110.1,353.5,110.1,353.5z M147.1,335.5c-9.1,0-16.3,2.2-16.3,8.6c0,4.4,3,6.4,6.9,6.4c4.1,0,8-2.8,9.1-6.1
	c0.3-0.8,0.3-1.9,0.3-2.8V335.5z M164,348.2c0,5,0.3,10,0.8,13H149l-1.1-5.5h-0.3c-3.6,4.4-9.4,6.6-16,6.6c-11.3,0-18-8-18-16.6
	c0-14.1,13-20.5,33.2-20.5v-0.6c0-3-1.7-6.9-10.2-6.9c-5.8,0-11.9,1.9-15.5,4.1l-3.3-10.8c3.9-2.2,11.6-5,21.8-5
	c18.5,0,24.3,10.5,24.3,23.2L164,348.2L164,348.2z M168.7,325c0-8,0-13-0.6-17.7H183l0.6,10h0.6c2.8-8,9.7-11.3,15.2-11.3
	c1.7,0,2.5,0,3.6,0.3v15.8c-1.4-0.3-2.8-0.6-4.7-0.6c-6.4,0-10.8,3.3-11.9,8.6c-0.3,1.1-0.3,2.5-0.3,3.9v27.4h-17.4V325z
	 M225.4,307.3l8.3,26.5c0.8,3,1.9,7.2,2.8,10h0.6c0.6-3,1.7-6.9,2.5-10.2l6.9-26.5h18.5l-13,35.7c-8,21.6-13.3,30.1-19.6,35.7
	c-6.1,5-12.4,6.9-16.6,7.5l-3.9-14.1c2.2-0.6,5-1.4,7.5-2.8c2.8-1.4,5.5-4.1,7.2-6.6c0.6-0.8,0.8-1.7,0.8-2.5c0-0.6,0-1.4-0.6-2.8
	l-20.5-49.5C206.3,307.3,225.4,307.3,225.4,307.3z M310,134.2h9.4v284.5H310V134.2z M397.1,279.4l-1.7-19.6l-1.7,19.6
	C394.8,279.1,396,279.1,397.1,279.4 M421.1,349L421.1,349c0-0.6,0-1.1-0.3-1.4c-0.3-0.3-0.8-0.6-1.4-0.8c-0.3,0-0.3,0-0.6,0
	l-0.6,4.1h0.3C420.3,351.2,421.1,350.4,421.1,349 M390.1,279.6l-5-14.4l1.9,14.9C388.2,279.9,389,279.9,390.1,279.6 M405.9,265.5
	l-4.7,14.1c1.1,0.3,1.9,0.3,3,0.6L405.9,265.5z M371.3,347.1c-0.3-0.3-0.6-0.3-0.8-0.3c0,0,0,0-0.3,0s-0.6,0.3-0.8,0.6
	c-0.3,0.6-0.6,1.1-0.3,1.9c0.3,1.4,0.8,1.9,1.7,1.9s1.4-1.1,1.1-2.2C371.9,348.2,371.6,347.6,371.3,347.1 M411.2,346.8
	c0-0.3,0-0.3-0.3-0.6s-0.6-0.3-0.8-0.3s-0.3,0-0.6,0v1.4h0.6C410.9,347.6,411.2,347.4,411.2,346.8 M414.2,320.3c0-0.3,0-0.6-0.3-0.8
	c0-0.3-2.5-6.9-2.5-9.1c0-1.4,0.3-2.5,0.8-4.1h-33.7c0.6,1.4,0.8,2.8,0.8,4.1c0,2.5-2.5,8.8-2.5,9.1c0,0.3-0.3,0.6-0.3,0.8
	c-0.8,4.7,0,7.5,1.9,9.1c1.4,1.1,14.9,9.7,16.6,9.7s15.2-8.6,16.6-9.7C413.9,327.7,415,325,414.2,320.3z M400.9,329.4l-4.7-0.6v4.1
	H396h-1.4l0,0l0.3-4.1l-4.7,0.6l0.6-1.9v-0.3l-5-4.1l1.4-0.8l0,0v-0.3l-0.8-3.3l3,0.8l0.6-1.9l2.5,2.8l0,0V320l-1.1-5.5l1.9,1.1
	c0.3,0,0.3,0,0.3,0l0,0l1.9-3.9l1.9,3.9l0,0c0,0,0,0,0.3,0l1.9-1.1l-1.1,5.5v0.3l0,0l2.5-3l0.6,1.9l3-0.6l-0.8,3.3v0.3l0,0l1.4,0.8
	l-5,4.1v0.3L400.9,329.4z M383.2,281.6l-5.8-9.4l3.3,10.8C381.3,282.4,382.4,282.1,383.2,281.6 M429.4,334.1c-0.8,0-3.3,0-3.6,0
	s-0.6,0-0.8,0.3c-0.3,0.3-0.6,0.6-0.6,0.8c0,0.6-0.6,1.4-1.1,1.9c-0.6,0.6-1.7,2.2-1.9,3c0.3,0,0.8,0,2.8-0.6
	c0.8-0.3,1.7-0.6,1.9-0.8c0,0,0-0.3,0-0.6c0-0.3,0.3-0.8,0.3-0.8c0-0.3,0.3-1.4,1.7-1.4h0.6c3.6,0,5.8,0,6.1,0
	c0.3,0,0.8-0.3,0.8-0.6c0,0,0,0,0-0.3c-0.8-1.1-1.7-3-1.9-4.7c0-0.8,0-1.4,0.3-1.9c0.3-0.6,0.8-1.1,1.4-1.7l0.3-0.3
	c0.6-0.6,1.4-1.7,1.4-2.2c0,0,0-0.6-0.6-0.6c-2.5-1.1-6.1-2.5-8.8-4.1c0.6,1.9,0.3,3.3-0.6,4.1c-1.1,1.1-0.3,2.8,0.6,4.4
	c0.3,0.6,0.8,1.1,1.1,1.7l0,0c1.1,1.9,1.9,2.8,1.4,3.6C430.2,333.8,430,333.8,429.4,334.1 M401.2,346.8c0-0.3,0-0.3-0.3-0.6
	c0,0.3,0,0.6-0.3,0.6c0,0.3-0.3,0.8-0.3,1.1c0.3,0,0.6,0,1.1,0L401.2,346.8z M423.6,293.5C423.6,293.5,423.3,293.5,423.6,293.5
	c-0.8,0-1.4-0.3-1.4-0.6s0-0.3,0-0.3c0.6-1.1,1.4-1.4,2.2-1.1c0.3,0.3,0.6,0.3,0.6,0.6C424.4,292.9,423.9,293.2,423.6,293.5
	 M456.2,309.2c-0.3-1.4-1.1-1.9-1.9-2.8c-0.6-0.3-0.8-0.6-1.1-1.1c-0.3-0.3-0.8-0.8-1.4-1.4c-1.4-1.4-3.6-3.9-5.5-3.9
	c-1.1,0-1.7,0.3-2.2,0.8c-0.6,0.6-0.8,1.7-0.8,2.8c0,1.7,1.9,3.9,3.6,5.5c1.7,1.9,3.6,3.3,3.6,5.3c0,1.7-1.9,2.8-2.5,2.5
	c-0.8-0.6-7.7-9.7-9.4-16.9c-1.9-7.7-2.8-9.7-5.5-11.1c-0.8-0.6-1.1-0.8-1.7-0.8c-0.3-0.3-0.6-0.3-0.8-0.6l0,0l0,0
	c-0.3-0.3-0.3-0.6-0.3-0.8v-0.3c-0.6-1.1-1.9-0.6-1.9-0.6c-1.9,0.6-5,0.8-8.8,0.3c3,2.2,7.2,1.4,7.2,1.4s0.3,0,0.6,0v0.3
	c-0.3,0.6-1.9,1.1-3.6,1.4c-0.8,0-0.8,0.3-1.1,1.1c0,0.3-0.3,0.6-0.3,0.8l0,0c-0.6,1.1-3,4.7-3.3,6.1c0,0.3,0,0.6,0.3,0.8
	c0.6,0.8,1.4,1.7,1.9,1.9l0,0c0.3,0,0.6-0.3,0.8-0.6c0.6-0.8,2.8-0.8,3.3-0.8s1.9-0.3,3-1.9c0.3-0.6,0.8,0.3,0.8,0.6
	c0,0.6-1.7,2.2-3.6,3c0,0-1.1,0.3-1.7,1.1c-0.6,0.8-1.1,2.2-1.1,3c0.3,0,1.4,0,2.8-0.6l0,0c0.3,0,0.3,0,0.3,0.3c0,0,0,0.3,0,0.6
	c-0.3,0.6-1.1,1.1-2.5,1.1c-0.6,0-5.3,0-6.4,1.4c-0.3,0.3-0.3,0.6-0.3,1.1c0.3,2.2,0.8,4.7,1.7,7.2c0.3,0.6,0.8,2.2,1.9,2.8
	c0,0,0.8-0.8,1.1-1.9c0.3-1.1-0.3-2.2-0.6-2.5h-0.3c-0.6,0-0.8,0-0.8-0.3c-0.3-0.3-0.3-0.8-0.3-1.4c0-0.3,0.3-0.6,0-0.8
	c0-0.3-0.3-0.3-0.3-0.6c-0.3-0.3-0.3-0.8-0.3-1.1c0.3-0.6,1.4-0.6,1.7-0.6c0.8,0,1.7,0.6,2.8,0.8c0.6,0,0.8,0.3,1.4,0.3
	c1.1,0,2.8,0.6,3.6,0c0.8-0.6,1.4-1.9,1.7-2.2c0-0.3,0.6-0.8,0.6-0.6c0.3,0,0.3,0.6,0.3,0.6c0,0.8,0,3.3-1.4,4.1
	c-0.6,0.3-1.4,0.6-2.2,0.6l0,0c-1.4,0-2.2-0.3-3-0.6c1.7,4.1,6.1,6.4,10.8,8.3c3,1.4,5.5,2.5,5.8,4.4c0,0.3,0,0.6,0,1.1
	c-0.3,2.2-1.7,6.1,2.5,10.5c0.8,1.1,3,4.4,0.8,8c-0.3,0.3-0.6,1.1-1.1,1.4c-0.6,0.6-2.5,1.9-2.5,2.2c0.3,0.6,2.2,0.6,3,0.6
	s1.7,0,1.9-0.6v-0.6c0-0.6,0-1.1,0.6-1.4c0.3-0.3,0.3-2.5,0.6-3.3c0.3-1.7,0.3-2.5,0.6-3c0.3-0.3,0.3-0.6,0.6-0.8
	c0.3-0.6,0.8-1.1,0.8-1.4s-0.3-0.6-0.6-0.8c-0.6-0.8-1.1-1.9-0.6-3c0.6-1.1,1.1-1.9,1.4-2.5l0,0c0.3-0.6,0.6-0.8,0.8-1.4
	c0.6-1.1,1.7-4.1,1.7-5.8c0-0.3-0.3-1.1-1.4-3.9V320l0.3-0.3c0.6-0.6,2.2-2.5,2.2-4.1c0.3-2.2-2.2-4.7-4.1-6.6c-1.7-1.7-3-3-3.3-4.7
	c-0.3-0.8,0-1.7,0.6-2.2c0.3-0.3,0.8-0.6,1.1-0.6c1.4,0,4.4,2.5,5.8,4.1c0.6,0.6,0.6,1.4,0.6,1.9s0,1.1,0,1.7c0,0.6,0.3,0.8,0.6,1.1
	c0.3,0.3,0.6,0.8,0.8,1.7c0.6-0.8,0.3-1.1,0.6-1.4c0.3-0.6,0.6-0.6,0.6,0c-0.3,1.9,0.3,3.3,0.8,3.9l0.3,0.3c-0.3-0.8,0-1.7,0.3-2.5
	C456,311.2,456.2,310,456.2,309.2 M363.9,291.5c0.6-0.3,1.7-0.3,2.2,1.1v0.3c-0.3,0.3-0.6,0.6-1.1,0.6h-0.3c-0.3,0-0.8-0.3-1.4-1.1
	C363,291.8,363.6,291.5,363.9,291.5 M348.9,346L348.9,346c-0.8-0.3-0.8-0.8-0.8-1.4c0-0.3,0-0.6-0.3-0.8c-0.3-0.3-0.3-3.9-0.3-4.1
	c0.3-2.5,1.9-4.7,3.6-6.4c1.7-1.9,3-3.6,2.5-5.5c0-0.3-0.3-0.6-0.3-0.8c-0.3-0.8-0.8-1.9,0-3c1.4-1.9,3.6-2.8,6.1-3.9
	c7.7-3,8.8-8.3,8.6-8.8c-0.3-0.6-0.8-0.6-2.2,0c-1.1,0.6-1.9,0.6-2.8,0.6c-1.9,0-2.5-1.7-2.5-1.9s0.3-0.3,0.3-0.3
	c0.3,0,1.9,1.4,4.7,0c2.2-1.1,6.1-0.8,7.2,0c0.3,0.3,0.6,2.5-0.6,3.3c-0.6,0.6-0.6,1.1-0.6,1.4c0,0.6-0.6,0.8-1.1,0.8h-0.3
	c-0.6,0-1.7,0.3-1.7,0.6c-0.3,0.3,0.3,1.9,0.6,3c0.3,0.8,0.8,1.4,0.8,1.7c0.3,0,1.1-0.6,1.4-0.8c0.3-0.3,0.6-0.3,0.8-0.6
	c0.6-0.6,0.8-1.4,1.7-1.9c0.3-0.3,0.3-0.3,0.6-0.3c0.3-0.3,1.9-5.3,1.9-7.2c0-1.7-2.5-2.5-3.3-2.8c-0.6,0-8-2.2-8.3-2.2
	c-1.7-0.3-1.9-2.2-1.7-2.2c0.3,0,0.3,0.6,1.7,1.1c0.3,0,3.3,1.1,4.1,1.4c-0.6-1.9-3.6-3.3-8.3-6.4c-1.7-1.1-2.2-2.2-2.2-3.3
	c0-0.6,0.3-0.8,0.3-0.8l0,0c1.4,3,3.6,2.8,4.1,2.8c0.6,0,0.8,0,1.1,0c0,0,0,0,0.3,0c0.3,0.3,0.8,0.6,2.2,1.1c0.3,0,1.4,1.1,1.4,1.1
	s0.3,0.3,0.6,0.3c0.3,0,0.6,0,0.6-0.3c0,0,0,0,0-0.3c-0.8-0.8-0.6-1.7-0.6-1.7c0.6-0.3,1.7,0.6,1.9,0.6c0.3,0.3,0.6,0.3,0.6,0.3
	c0.3,0,1.9-0.6,1.4-1.9c-0.3-0.3-0.6-0.8-1.7-1.7c-1.1-1.1-2.5-2.8-2.8-3.6c-0.6-1.1-1.1-1.9-2.2-2.2l-0.3-0.3
	c0-0.3,0.6-0.6,1.1-0.8c0.6-0.3,1.1-0.6,1.1-0.8l0,0c-0.3-0.3-1.1-0.6-1.9-0.6s-1.4,0.3-1.7,0.6l0,0l0,0c-0.6-0.3-1.4-0.3-3-0.3
	h-0.3c-1.1,0-1.9,0.3-2.5,0.8c-0.6,0.3-1.1,0.6-1.7,0.6c-0.3,0-0.8,0-1.1-0.3c-0.3,0.6,0,1.1,0.6,1.7l0.3,0.3h-0.3
	c-1.1,0.3-1.7,0.8-1.9,1.4c-0.3,0.6-0.6,1.1-1.7,1.1c-0.3,0-0.8,0-1.4-0.3l0,0c0,0.6,0,0.8,0,1.1c0.3,0.6,0.8,0.8,1.9,0.8h0.3
	l-0.3,0.3c-1.7,1.1-1.9,3.3-1.9,5.3c-0.3,1.4-0.3,2.8-1.1,3.3c0.6,0.3,0.8,0.3,1.1,0.3c0.6,0,0.6-0.3,0.8-0.6c0,0,0-0.3,0.3-0.3l0,0
	l0,0c0.3,0.3,0.8,2.2,0.6,4.1c0,1.1-0.6,2.8-1.9,3.6c0.3,0.3,1.4,0,1.9-0.3c0.8-0.6,1.4-1.1,1.7-1.9c0.3-0.3,0.6-1.4,0.8-1.4
	s0.6,0.6,0.6,0.6c0.3,1.9-2.2,5.3-5.5,7.2c-5.5,3-6.1,6.6-6.4,8v0.3h-0.3c-0.8-0.6-1.1-1.4-1.1-1.9c0-1.9,1.1-3.9,2.5-6.1
	c1.1-1.9,2.2-3.9,2.5-5.8c0.6-4.4-0.8-6.6-1.7-8c-0.3-0.6-0.6-1.1-0.6-1.4c0-0.6,0.3-0.8,0.8-0.8s0.8,0.3,1.1,0.6c0,0,0.3,0,0.3-0.3
	s0-0.6-0.3-0.8c-0.6-0.6-1.4-1.1-2.5-1.1l0,0c-1.7,0-2.5,2.5-2.8,3.9l0,0l0,0c-0.3,0-0.3,0-0.6,0c-4.1,0-5.5,4.4-5.8,7.2
	c0,1.4,0,2.5,0.3,3.6c0.3,1.4,0.3,2.2,0,3.3c-0.3,0.6-0.8,0.6-1.1,0.3c-0.3,0-0.3,0-0.6,0c0,0,0,0,0,0.3c0,0,0,0.3,0.3,0.3
	c0.3,0.3,1.1,0.8,1.9,0.6c0.8-0.3,1.4-2.5,1.7-3.9c0-0.6,0.3-0.8,0.3-1.1s0.3-0.6,0.3-0.3c0.3,0,0.3,0.6,0.6,1.9
	c0,0.3,0.3,0.3,0.3,0.3s0.3,0,0.3-0.3s0.3-0.6,0.3-1.1c0.3-1.1,0.3-2.2,1.7-2.2c0.3,0,0.3,0,0.3,0.3c0.3,0.6,0.3,1.9-0.6,4.4
	c-0.6,2.2-1.4,4.7-1.4,6.4c0.3,3.6,2.5,4.4,3,4.7l0,0l0,0c0.3,1.4,0.8,3,1.7,4.7c1.4,3,1.7,5.5,0.8,7.5l0,0
	c-0.3,0.3-0.3,0.6-0.6,1.1c0,0.3,0,0.8,0.3,1.1c0.8,0.8,0.3,3.3-0.3,5c0,0.3,0.3,1.1,0.8,1.4c0.3,0,0.3,1.1,0.3,1.7
	c0,0.8,0,1.4,0.3,1.9l0,0c0.6,0,1.1,0,1.7,0c1.7,0,3-0.3,3.3-0.3l0,0v-0.3C350.3,348.2,349.2,346.5,348.9,346 M365,356.8l-1.1,0.3
	l-0.8-5.5c-4.1,0.6-8.3,1.1-12.2,1.7c2.8,2.2,5.8,4.1,8.6,6.4c5.8-0.8,11.3-1.7,17.1-2.2c-0.8-0.6-1.7-1.1-2.5-1.7
	C371.1,355.9,368,356.5,365,356.8 M364.2,339.1c0.3,0.3,3.6,0.8,4.4,0.8c0-0.6-0.6-2.5-0.8-3c-0.3-0.3-0.3-0.3-0.3-0.3
	c-0.3-0.3-0.8-0.3-1.4-1.1c-0.3-0.6-0.8-0.8-1.7-1.1c-1.7-0.6-4.7-1.7-4.7-2.5s0.8-1.9,1.4-2.8c1.1-1.1,1.9-2.5,1.7-3.9l0,0
	c-0.3-0.8-0.6-1.9-1.4-3c-0.3-0.6-1.1-0.8-1.9-0.6c-4.4,1.4-5.3,3.3-5.3,3.6c0,0.3,0.3,0.6,0.8,0.8c1.4,1.1,3,2.5,0.6,7.7
	c0,0.3,0,0.3,0,0.6s0.6,0.3,0.8,0.3c1.9-0.3,4.4,0.8,5.3,1.7c0.6,0.6,0.8,0.6,1.1,0.6l0,0c0.3,0,0.3,0,0.3,0.3
	c0.3,0.3,0.3,0.8,0.3,1.1C364.2,338.2,364.2,338.8,364.2,339.1 M409.2,296.5c-1.7,0.3-3.3,0.6-5,0.6c-4.4,0-7.7-1.1-8.6-1.7
	c-0.8,0.6-4.4,1.7-8.6,1.7c-1.7,0-3.3-0.3-5-0.6c-0.3,0-0.8,0-0.8,0.6c-1.1,2.5-2.5,4.1-3.3,5.3l0.6,1.9l6.4-2.5l4.7,2.2l6.6-4.4
	l6.4,4.4l4.4-2.2l6.6,2.5l0.6-1.9c-0.8-1.1-2.2-2.8-3.3-5.3C410.1,296.8,409.5,296.5,409.2,296.5 M406.7,361.2
	c-0.6-3-2.8-5.3-2.8-5.3s-5,4.4-8.6,7.7c-3.6-3-8.6-7.7-8.6-7.7s-2.2,2.2-2.8,5.3c-0.6,2.2-1.4,2.8-1.4,2.8l3.9,3.3
	c0,0,1.4-1.4,1.7-3.3c0.3-2.5,1.9-3.9,1.9-3.9s2.5,2.2,4.7,4.1c-1.4,1.4-2.8,2.2-2.8,2.5c0,0-0.3,0.3,0,0.6s0.6,0.3,0.6,0
	c0,0,1.4-1.1,2.8-2.5c1.4,1.4,2.8,2.5,2.8,2.5s0.3,0,0.6,0c0.3-0.3,0-0.3,0-0.6c0,0-1.1-1.1-2.8-2.5c2.2-1.9,4.7-4.1,4.7-4.1
	s1.7,1.7,1.9,3.9c0.3,1.9,1.7,3.3,1.7,3.3l3.9-3.3C408.4,364.2,407.3,363.7,406.7,361.2 M396.2,343.8L396.2,343.8
	c-0.8,2.5-1.4,5-1.9,7.2v0.3H394c-0.6,0-1.1,0-1.7,0h-0.3V351c-0.3-1.1-0.6-1.9-0.6-3c0-0.3,0-0.6-0.3-0.8c0,0.3,0,0.6-0.3,0.8
	c-0.3,1.1-0.3,1.9-0.6,3v0.3h-0.3c-0.6,0-1.1,0-1.7,0h-0.3V351c-0.6-2.2-1.4-4.7-1.9-6.9v-0.3h0.3c0.6,0,1.1,0,1.7,0h0.3v0.3
	c0.3,0.8,0.6,1.9,0.6,2.8c0,0.6,0.3,0.8,0.3,1.4c0-0.6,0.3-0.8,0.3-1.4c0.3-0.8,0.3-1.9,0.6-2.8v-0.3h0.3c0.6,0,1.1,0,1.7,0h0.3v0.3
	c0.3,0.8,0.3,1.9,0.6,2.8c0,0.3,0.3,0.8,0.3,1.1c0-0.3,0-0.6,0-0.6v-0.3c0.3-0.8,0.3-1.9,0.6-2.8v-0.3h0.3
	C394.8,343.8,395.4,343.8,396.2,343.8L396.2,343.8z M397.6,351c0.8-2.2,1.4-4.7,2.2-6.9l0,0h0.3c0.8,0,1.4,0,2.2,0h0.3v0.3
	c0.6,2.2,1.4,4.7,1.9,6.9v0.3h-0.3c-0.6,0-1.1,0-1.7,0h-0.3v-0.3c-0.3-0.6-0.3-1.1-0.6-1.7c-0.6,0-1.1,0-1.7,0
	c-0.3,0.6-0.3,1.1-0.6,1.7v0.3h-0.3C399,351.2,398.4,351.2,397.6,351L397.6,351L397.6,351z M407.8,344.1L407.8,344.1
	c0.8,0,1.7,0,2.5,0c1.1,0,1.9,0.3,2.5,0.8c0.6,0.3,0.6,1.1,0.6,1.7c0,0.8-0.6,1.4-1.1,1.7c0.3,0.3,0.6,0.6,0.6,1.4
	c0,0.3,0,0.6,0,0.6l0,0c0,0.6,0.3,1.1,0.3,1.1v0.3h-0.3c-0.6,0-1.1,0-1.7,0l0,0l0,0c0-0.3-0.3-0.8-0.3-1.7c0-0.8-0.3-1.1-0.8-1.1
	h-0.3l-0.3,2.8h-0.3c-0.6,0-1.1,0-1.7,0h-0.3L407.8,344.1z M417,345.2L417,345.2c0.8,0,1.7,0,2.5,0c1.4,0.3,2.2,0.6,3,1.1
	c0.8,0.8,1.1,1.7,0.8,2.8c-0.3,1.7-1.1,2.2-1.7,2.8c-0.6,0.3-1.4,0.6-2.5,0.6c-0.3,0-0.6,0-1.1,0c-0.8,0-1.4-0.3-1.9-0.3h-0.3
	L417,345.2z M383.5,351.5c-0.6,0-1.1,0-1.7,0l0,0l0,0c-0.6-0.8-1.1-1.7-1.7-2.5c-0.3-0.6-0.8-1.1-1.1-1.7c0,0.6,0.3,1.4,0.3,2.2
	l0.3,2.2h-0.3c-0.6,0-0.8,0-1.4,0h-0.3v-0.6l-0.6-6.6h0.3c0.6,0,1.4,0,1.9-0.3l0,0l0,0c0.6,0.8,1.1,1.7,1.7,2.5
	c0.3,0.3,0.6,0.8,0.8,1.4c0-0.6,0-1.1-0.3-1.7l-0.3-2.2h0.3c0.6,0,1.1,0,1.4,0h0.3v0.3L383.5,351.5L383.5,351.5z M370.8,352.9
	c-0.3,0-0.3,0-0.6,0c-1.9,0-3.3-1.4-3.6-3.3c-0.3-1.1,0-2.2,0.6-2.8c0.6-0.8,1.4-1.1,2.5-1.4c1.1,0,1.9,0,2.8,0.6
	c0.8,0.6,1.1,1.4,1.4,2.5C374.4,351,373,352.6,370.8,352.9 M364.4,345.2l1.4,9.7c9.7-1.4,19.4-2.2,29-2.2c9.7,0,19.6,0.8,29,2.2
	l1.4-9.7C405.6,341.8,384.9,341.8,364.4,345.2 M386.6,294.3c2.8-1.7,5.8-2.2,9.1-2.2s6.1,0.6,9.1,2.2c1.1-1.9,4.1-7.2,4.4-7.7
	c-0.8-0.6-1.7-0.8-2.5-1.4h-0.3c-0.3,0.8-0.6,1.7-1.1,2.5c-0.8-0.3-1.9-0.8-2.8-1.1c0.3-0.8,0.6-1.7,0.8-2.5c-1.1-0.3-1.9-0.6-3-0.6
	c-0.3,0.8-0.3,1.7-0.6,2.5c-0.8-0.3-1.9-0.3-2.8-0.3c0-0.8,0-1.7,0-2.5c-1.1,0-1.9,0-3,0c0,0.8,0,1.7,0,2.5c-0.8,0-1.9,0.3-2.8,0.3
	c-0.3-0.8-0.3-1.7-0.6-2.5c-1.1,0.3-1.9,0.3-3,0.6c0.3,0.8,0.6,1.7,0.8,2.5c-0.8,0.3-1.9,0.6-2.8,1.1c-0.3-0.8-0.6-1.7-1.1-2.2h-0.3
	c-0.8,0.3-1.7,0.8-2.5,1.4C382.4,287.1,385.4,292.3,386.6,294.3 M426.1,357l-1.1-0.3c-2.8-0.6-5.8-0.8-8.8-1.1l0,0
	c-0.8,0.6-1.7,1.1-2.2,1.7c5.8,0.6,11.6,1.4,17.1,2.2c2.8-2.2,5.5-4.4,8.6-6.4c-4.1-0.6-8.6-1.1-12.7-1.7L426.1,357z M413.6,272.4
	l-5.8,9.1c0.8,0.3,1.9,0.8,2.8,1.4L413.6,272.4z"/>
</svg>
